<svg width="173" height="67" viewBox="0 0 173 67" fill="none" xmlns="http://www.w3.org/2000/svg">
<g clip-path="url(#clip0_1_994)">
<path d="M-25.5735 22.516C-25.4067 22.5079 -25.2399 22.493 -25.073 22.493C-19.4093 22.4917 -13.746 22.4917 -8.08228 22.4922C-7.48276 22.4922 -7.4819 22.493 -7.48147 23.0819C-7.48062 23.7898 -7.48957 24.4977 -7.47763 25.2056C-7.47293 25.4902 -7.5634 25.6157 -7.86637 25.6447C-8.69717 25.7245 -9.52243 25.8585 -10.3537 25.934C-11.4324 26.0321 -11.982 26.5685 -12.0204 27.7193C-12.0579 28.8378 -12.0255 29.9587 -12.034 31.0784C-12.0362 31.3553 -11.8843 31.3912 -11.6645 31.3899C-10.9566 31.3856 -10.2487 31.3886 -9.54078 31.3886C-5.94958 31.3886 -2.35839 31.3891 1.2328 31.3882C1.74698 31.3882 1.7487 31.3861 1.74912 30.8779C1.74955 29.8354 1.75595 28.7925 1.74528 27.7501C1.73376 26.6009 1.18842 26.0428 0.0384369 25.9314C-0.83077 25.8474 -1.69614 25.7228 -2.56449 25.6272C-2.77998 25.6033 -2.85594 25.4864 -2.85637 25.2965C-2.85893 24.4597 -2.85765 23.6234 -2.85679 22.7866C-2.85637 22.5801 -2.75353 22.4802 -2.54358 22.4917C-2.45398 22.4968 -2.36351 22.4909 -2.27347 22.4909C3.36422 22.4909 9.00233 22.4909 14.64 22.4909C15.2297 22.4909 15.2302 22.4917 15.2306 23.0878C15.231 23.7829 15.2225 24.4781 15.2344 25.1732C15.2391 25.4612 15.1764 25.6123 14.8414 25.646C13.8835 25.742 12.9268 25.8597 11.9757 26.0082C11.2874 26.1158 10.8824 26.5485 10.7663 27.2372C10.713 27.5529 10.6742 27.8713 10.6746 28.196C10.6797 31.9032 10.6797 35.6101 10.6746 39.3173C10.6742 39.6421 10.7122 39.9608 10.7681 40.2757C10.9093 41.0728 11.4534 41.4867 12.3618 41.5733C13.2182 41.6548 14.0704 41.7811 14.9255 41.8742C15.158 41.8993 15.2323 42.0107 15.231 42.2258C15.2268 43.0498 15.2263 43.8733 15.2306 44.6973C15.2319 44.9281 15.1282 45.0271 14.9029 45.016C14.8128 45.0118 14.7228 45.0169 14.6328 45.0169C8.99508 45.0169 3.35696 45.0169 -2.28074 45.0169C-2.85978 45.0169 -2.86106 45.016 -2.86234 44.4442C-2.86362 43.7491 -2.85722 43.054 -2.86447 42.3589C-2.86789 42.0619 -2.80174 41.8955 -2.44629 41.8622C-1.52631 41.776 -0.606747 41.6647 0.305559 41.517C1.15898 41.3788 1.63519 40.8454 1.6578 39.989C1.68938 38.8057 1.66677 37.6207 1.67402 36.4366C1.6753 36.2023 1.57331 36.1127 1.34801 36.1191C1.0907 36.1264 0.833403 36.1196 0.575668 36.1196C-3.44053 36.1196 -7.4563 36.1196 -11.4725 36.1196C-12.0323 36.1196 -12.0328 36.1204 -12.0332 36.6611C-12.0336 37.6263 -12.0293 38.5919 -12.0357 39.5571C-12.0375 39.8435 -11.9935 40.123 -11.9282 40.3969C-11.7575 41.1112 -11.2408 41.4837 -10.3933 41.5708C-9.53736 41.6583 -8.68564 41.7824 -7.82966 41.8695C-7.56126 41.8968 -7.47934 42.0158 -7.48147 42.2646C-7.4883 43.0498 -7.49257 43.8349 -7.47976 44.6201C-7.47464 44.9239 -7.59541 45.0254 -7.89154 45.0207C-8.70229 45.0079 -9.51347 45.0169 -10.3242 45.0169C-15.2156 45.0169 -20.107 45.0173 -24.9979 45.016C-25.1904 45.016 -25.3832 45.0011 -25.5757 44.993C-25.5757 43.9629 -25.5757 42.9333 -25.5757 41.9032C-24.5059 41.7735 -23.4349 41.6544 -22.3672 41.5098C-21.6393 41.4108 -21.2429 40.9567 -21.1038 40.2463C-21.0538 39.9911 -21.0406 39.7376 -21.0406 39.4803C-21.0406 36.7165 -21.0402 33.9527 -21.0406 31.1894C-21.0406 30.0325 -21.0291 28.8753 -21.047 27.7189C-21.0637 26.6445 -21.5731 26.0718 -22.593 25.9476C-23.5864 25.8269 -24.5814 25.7189 -25.5757 25.6054C-25.5736 24.5758 -25.5735 23.5457 -25.5735 22.516Z" fill="#5F5F5F"/>
<path d="M31.8168 45.6881C31.1281 45.6185 30.4381 45.5601 29.7507 45.4773C26.765 45.1172 23.8715 44.4421 21.269 42.8539C18.3217 41.0553 16.5222 38.4673 16.1455 35.0084C15.7725 31.5858 16.681 28.5531 19.2084 26.1162C20.7484 24.6308 22.614 23.6874 24.6319 23.0328C26.6092 22.391 28.6434 22.0526 30.7121 21.8593C32.5499 21.6878 34.3894 21.6729 36.2256 21.7373C39.5573 21.8542 42.837 22.3065 45.9238 23.6664C48.4188 24.7652 50.4803 26.3726 51.7233 28.8659C52.6275 30.6798 52.9573 32.6077 52.7909 34.6312C52.4145 39.2017 49.8095 42.0717 45.7732 43.8362C43.635 44.7711 41.3726 45.2426 39.0589 45.485C38.3958 45.5545 37.7323 45.6207 37.0692 45.6885C35.3184 45.6881 33.5676 45.6881 31.8168 45.6881ZM42.3757 33.698C42.4043 33.0221 42.3322 32.2809 42.2179 31.5435C41.8159 28.9444 40.4556 27.1539 37.8385 26.4981C35.6606 25.9523 33.4601 25.951 31.271 26.455C28.7654 27.0319 27.2719 28.6184 26.7654 31.1232C26.4023 32.9197 26.4112 34.7238 26.7932 36.5198C27.2997 38.9 28.7193 40.4319 31.0893 41.0143C33.3483 41.5695 35.6269 41.5708 37.8816 40.9968C40.1453 40.4208 41.5415 38.958 42.0724 36.6756C42.2951 35.7189 42.3932 34.7507 42.3757 33.698Z" fill="#5F5F5F"/>
<path d="M172.164 44.9158C172.01 44.9239 171.856 44.9396 171.703 44.9396C165.614 44.9409 159.526 44.9409 153.437 44.9405C152.831 44.9405 152.83 44.9396 152.83 44.323C152.83 43.6151 152.838 42.9072 152.827 42.1993C152.823 41.9237 152.924 41.8208 153.203 41.7931C154.034 41.7112 154.862 41.5977 155.69 41.4965C155.91 41.4696 156.119 41.4073 156.315 41.3088C156.878 41.0263 157.054 40.5689 156.785 39.9971C156.494 39.3771 156.059 38.8449 155.686 38.274C155.556 38.0743 155.341 38.134 155.155 38.1336C152.015 38.1306 148.874 38.1315 145.733 38.1315C144.562 38.1315 143.39 38.1383 142.219 38.1268C141.945 38.1242 141.763 38.2032 141.622 38.4481C141.32 38.9717 140.986 39.4769 140.678 39.9975C140.312 40.6158 140.489 41.1453 141.148 41.4496C141.691 41.7005 142.286 41.6194 142.853 41.718C143.118 41.7641 143.389 41.7705 143.658 41.7961C144.225 41.8503 144.225 41.8507 144.226 42.4327C144.226 43.089 144.227 43.7457 144.225 44.402C144.225 44.9379 144.223 44.9401 143.694 44.9401C140.245 44.9409 136.795 44.9405 133.345 44.9405C132.315 44.9405 131.285 44.9298 130.256 44.9465C129.92 44.952 129.8 44.8424 129.809 44.5031C129.828 43.744 129.823 42.9845 129.811 42.2249C129.806 41.9377 129.9 41.8195 130.202 41.791C131.059 41.7099 131.912 41.5942 132.766 41.4884C133.503 41.3971 134.002 40.9691 134.38 40.3572C135.716 38.1882 137.058 36.0218 138.398 33.855C139.596 31.9177 140.796 29.9813 141.992 28.0432C142.154 27.7816 142.325 27.5252 142.335 27.1962C142.356 26.563 141.944 26.0838 141.312 26.0176C140.098 25.8909 138.886 25.7509 137.671 25.6378C137.385 25.6114 137.297 25.4992 137.301 25.2286C137.311 24.4695 137.319 23.7095 137.298 22.9504C137.288 22.598 137.406 22.4832 137.761 22.4849C140.181 22.4973 142.601 22.4913 145.02 22.4913C148.058 22.4913 151.096 22.5135 154.134 22.4793C155.226 22.467 155.998 22.8958 156.582 23.791C159.162 27.7471 161.754 31.6958 164.341 35.6472C165.356 37.1978 166.374 38.746 167.382 40.3017C167.914 41.1236 168.664 41.5174 169.634 41.5776C170.479 41.6301 171.321 41.7406 172.165 41.8255C172.164 42.856 172.164 43.8861 172.164 44.9158ZM148.577 34.0765C149.876 34.0765 151.175 34.0773 152.475 34.0743C152.571 34.0739 152.702 34.1238 152.757 34.0154C152.811 33.9109 152.703 33.8277 152.65 33.7458C151.309 31.7022 149.965 29.6617 148.628 27.6156C148.474 27.3793 148.395 27.3293 148.224 27.6114C146.98 29.6553 145.722 31.6903 144.471 33.7287C144.274 34.0496 144.288 34.0752 144.679 34.0756C145.978 34.0777 147.277 34.0765 148.577 34.0765Z" fill="#5F5F5F"/>
<path d="M83.3109 38.9926C83.3109 35.9489 83.3182 33.0144 83.3066 30.0803C83.3032 29.194 83.3834 28.3043 83.2494 27.4211C83.1027 26.4511 82.6423 26.0364 81.6728 25.9374C80.8168 25.8499 79.9646 25.7253 79.1082 25.6387C78.8403 25.6114 78.7494 25.4992 78.7652 25.2457C78.8176 24.3991 78.8654 23.5521 78.9094 22.7046C78.9192 22.5169 78.9947 22.4162 79.1893 22.4192C79.2921 22.4204 79.3954 22.4162 79.4983 22.4162C83.9134 22.4162 88.3286 22.4157 92.7437 22.4162C93.3202 22.4162 93.3211 22.4175 93.3215 22.9888C93.3224 23.7095 93.3143 24.4307 93.3249 25.1514C93.3288 25.4194 93.2426 25.538 92.9575 25.567C92.1784 25.6459 91.4043 25.7769 90.6247 25.852C89.2981 25.9796 88.8069 26.4887 88.7707 27.8273C88.7668 27.969 88.7694 28.1106 88.7694 28.2519C88.7694 33.6194 88.7694 38.987 88.7694 44.3546C88.7694 44.9392 88.7685 44.9405 88.1733 44.9405C84.6721 44.9405 81.171 44.9277 77.6698 44.9473C76.6457 44.9533 75.8955 44.5782 75.2713 43.7504C71.5282 38.7873 67.7556 33.8469 63.9925 28.8992C63.9097 28.7904 63.8201 28.6871 63.7241 28.5698C63.634 28.7123 63.6729 28.8433 63.6729 28.9657C63.6703 32.338 63.6686 35.7108 63.6741 39.083C63.6746 39.4551 63.7019 39.8294 63.748 40.1989C63.8504 41.0139 64.4072 41.4777 65.3161 41.5708C66.1721 41.6582 67.0238 41.7833 67.8798 41.8695C68.1516 41.8968 68.225 42.0192 68.2224 42.2663C68.2148 43.0386 68.2058 43.8114 68.2263 44.5829C68.2352 44.9273 68.1068 45.0237 67.7761 45.022C65.5751 45.0113 63.3737 45.0164 61.1728 45.0164C58.8557 45.0164 56.5387 45.01 54.2221 45.0228C53.8615 45.025 53.7152 44.9256 53.7275 44.5454C53.7514 43.7995 53.742 43.0523 53.7309 42.306C53.7267 42.0252 53.8086 41.8938 54.1158 41.8648C54.9466 41.7862 55.7728 41.6557 56.6031 41.5742C57.7416 41.4624 58.2737 40.8756 58.2818 39.6365C58.2929 37.9117 58.2852 36.187 58.2852 34.4618C58.2852 32.3508 58.2852 30.2399 58.2852 28.1285C58.2852 27.9997 58.2891 27.8708 58.2814 27.7424C58.2122 26.545 57.6972 26.0355 56.5144 25.9284C55.6831 25.8533 54.857 25.7253 54.0271 25.6306C53.8167 25.6067 53.7352 25.5051 53.7356 25.305C53.7378 24.4682 53.7378 23.6319 53.7365 22.7951C53.7361 22.5873 53.8312 22.4862 54.0416 22.4926C54.1444 22.496 54.2477 22.4913 54.3505 22.4913C59.2419 22.4913 64.1333 22.4913 69.0247 22.4913C69.2308 22.4913 69.4369 22.4887 69.6425 22.4964C70.4307 22.5246 71.0575 22.8139 71.5538 23.4727C75.3549 28.5207 79.1757 33.5542 82.9904 38.5919C83.0737 38.7028 83.1633 38.8087 83.3109 38.9926Z" fill="#5F5F5F"/>
<path d="M107.47 44.9405C102.792 44.9405 98.9307 44.9409 95.0685 44.9401C94.5159 44.9401 94.5151 44.9384 94.5142 44.3858C94.5134 43.6651 94.5228 42.9439 94.51 42.2232C94.5048 41.9347 94.6013 41.8221 94.9021 41.7905C95.8601 41.6902 96.8176 41.5763 97.7683 41.4244C98.4643 41.3135 98.8684 40.8803 98.9785 40.1955C99.0335 39.8541 99.063 39.5046 99.0638 39.1586C99.0698 35.4509 99.0659 31.7436 99.0706 28.0359C99.0711 27.7116 99.0374 27.392 98.9823 27.0767C98.8872 26.5335 98.5611 26.1789 98.0303 26.0193C97.3224 25.8064 96.5829 25.8119 95.8588 25.7112C94.5829 25.5341 94.8509 25.7987 94.8227 24.5962C94.8091 24.0172 94.8283 23.4377 94.8176 22.8582C94.8129 22.5988 94.9017 22.4674 95.1735 22.4917C95.2375 22.4977 95.3019 22.4917 95.3664 22.4917C102.781 22.4921 110.197 22.4768 117.612 22.5024C120.267 22.5118 122.867 22.9193 125.329 23.9749C127.913 25.0831 129.922 26.804 130.968 29.4868C131.643 31.2196 131.821 33.0199 131.653 34.8693C131.506 36.4852 131.072 38.0013 130.221 39.3869C129.172 41.0958 127.679 42.3111 125.895 43.1773C123.735 44.2253 121.431 44.7361 119.047 44.8569C114.918 45.0655 110.785 44.8722 107.47 44.9405ZM107.844 33.7526C107.844 35.8499 107.844 37.9471 107.844 40.0448C107.844 40.5876 107.845 40.5898 108.367 40.5898C110.658 40.5906 112.948 40.594 115.239 40.5868C115.778 40.5851 116.316 40.5782 116.855 40.5044C119.103 40.198 120.424 39.0532 120.939 36.8449C121.388 34.9175 121.358 32.9674 121.031 31.0238C120.848 29.9369 120.447 28.9431 119.616 28.1729C118.677 27.302 117.511 26.976 116.284 26.9525C113.634 26.9026 110.983 26.9325 108.332 26.9099C107.933 26.9064 107.834 27.0396 107.837 27.4215C107.853 29.532 107.844 31.6425 107.844 33.7526Z" fill="#5F5F5F"/>
</g>
<defs>
<clipPath id="clip0_1_994">
<rect width="272.104" height="66.54" fill="white" transform="translate(-99.9399)"/>
</clipPath>
</defs>
</svg>
